<svg width="152" height="152" viewBox="0 0 152 152" fill="none" xmlns="http://www.w3.org/2000/svg">
  <!-- Background -->
  <rect width="152" height="152" rx="25" fill="url(#gradient1)"/>
  
  <defs>
    <linearGradient id="gradient1" x1="0%" y1="0%" x2="100%" y2="100%">
      <stop offset="0%" style="stop-color:#3B82F6;stop-opacity:1" />
      <stop offset="100%" style="stop-color:#1E40AF;stop-opacity:1" />
    </linearGradient>
    <linearGradient id="gradient2" x1="0%" y1="0%" x2="100%" y2="100%">
      <stop offset="0%" style="stop-color:#FBBF24;stop-opacity:1" />
      <stop offset="100%" style="stop-color:#F59E0B;stop-opacity:1" />
    </linearGradient>
  </defs>
  
  <!-- "S" -->
  <path d="M40 50 C34 50 28 56 28 62 C28 68 34 74 40 74 L59 74 C65 74 71 80 71 86 C71 92 65 98 59 98 L40 98 C28 98 18 88 18 76 L18 70" 
        stroke="white" stroke-width="6" fill="none" stroke-linecap="round"/>
  
  <!-- Books -->
  <rect x="86" y="47" width="48" height="6" rx="2" fill="white" opacity="0.9"/>
  <rect x="88" y="38" width="44" height="6" rx="2" fill="white" opacity="0.8"/>
  <rect x="90" y="29" width="40" height="6" rx="2" fill="white" opacity="0.7"/>
  
  <!-- Exchange -->
  <path d="M59 115 L84 115 M76 107 L84 115 L76 123" 
        stroke="url(#gradient2)" stroke-width="5" fill="none" stroke-linecap="round" stroke-linejoin="round"/>
  <path d="M95 130 L70 130 M78 122 L70 130 L78 138" 
        stroke="url(#gradient2)" stroke-width="5" fill="none" stroke-linecap="round" stroke-linejoin="round"/>
  
  <!-- "X" -->
  <path d="M105 115 L121 131 M121 115 L105 131" 
        stroke="white" stroke-width="4" stroke-linecap="round"/>
</svg>
