<svg width="72" height="72" viewBox="0 0 72 72" fill="none" xmlns="http://www.w3.org/2000/svg">
  <!-- Background -->
  <rect width="72" height="72" rx="12" fill="url(#gradient1)"/>
  
  <defs>
    <linearGradient id="gradient1" x1="0%" y1="0%" x2="100%" y2="100%">
      <stop offset="0%" style="stop-color:#3B82F6;stop-opacity:1" />
      <stop offset="100%" style="stop-color:#1E40AF;stop-opacity:1" />
    </linearGradient>
    <linearGradient id="gradient2" x1="0%" y1="0%" x2="100%" y2="100%">
      <stop offset="0%" style="stop-color:#FBBF24;stop-opacity:1" />
      <stop offset="100%" style="stop-color:#F59E0B;stop-opacity:1" />
    </linearGradient>
  </defs>
  
  <!-- "S" -->
  <path d="M19 24 C16 24 13 27 13 30 C13 33 16 36 19 36 L28 36 C31 36 34 39 34 42 C34 45 31 48 28 48 L19 48 C13 48 8 43 8 37 L8 34" 
        stroke="white" stroke-width="3" fill="none" stroke-linecap="round"/>
  
  <!-- Books -->
  <rect x="41" y="22" width="22" height="3" rx="1" fill="white" opacity="0.9"/>
  <rect x="42" y="18" width="20" height="3" rx="1" fill="white" opacity="0.8"/>
  <rect x="43" y="14" width="18" height="3" rx="1" fill="white" opacity="0.7"/>
  
  <!-- Exchange -->
  <path d="M28 56 L40 56 M36 52 L40 56 L36 60" 
        stroke="url(#gradient2)" stroke-width="2" fill="none" stroke-linecap="round" stroke-linejoin="round"/>
  <path d="M45 62 L33 62 M37 58 L33 62 L37 66" 
        stroke="url(#gradient2)" stroke-width="2" fill="none" stroke-linecap="round" stroke-linejoin="round"/>
  
  <!-- "X" -->
  <path d="M50 56 L58 64 M58 56 L50 64" 
        stroke="white" stroke-width="2" stroke-linecap="round"/>
</svg>
