<svg width="128" height="128" viewBox="0 0 128 128" fill="none" xmlns="http://www.w3.org/2000/svg">
  <!-- Background -->
  <rect width="128" height="128" rx="20" fill="url(#gradient1)"/>
  
  <defs>
    <linearGradient id="gradient1" x1="0%" y1="0%" x2="100%" y2="100%">
      <stop offset="0%" style="stop-color:#3B82F6;stop-opacity:1" />
      <stop offset="100%" style="stop-color:#1E40AF;stop-opacity:1" />
    </linearGradient>
    <linearGradient id="gradient2" x1="0%" y1="0%" x2="100%" y2="100%">
      <stop offset="0%" style="stop-color:#FBBF24;stop-opacity:1" />
      <stop offset="100%" style="stop-color:#F59E0B;stop-opacity:1" />
    </linearGradient>
  </defs>
  
  <!-- "S" -->
  <path d="M34 42 C29 42 24 47 24 52 C24 57 29 62 34 62 L50 62 C55 62 60 67 60 72 C60 77 55 82 50 82 L34 82 C24 82 16 74 16 64 L16 59" 
        stroke="white" stroke-width="5" fill="none" stroke-linecap="round"/>
  
  <!-- Books -->
  <rect x="73" y="40" width="40" height="5" rx="2" fill="white" opacity="0.9"/>
  <rect x="75" y="33" width="36" height="5" rx="2" fill="white" opacity="0.8"/>
  <rect x="77" y="26" width="32" height="5" rx="2" fill="white" opacity="0.7"/>
  
  <!-- Exchange -->
  <path d="M50 96 L71 96 M64 89 L71 96 L64 103" 
        stroke="url(#gradient2)" stroke-width="4" fill="none" stroke-linecap="round" stroke-linejoin="round"/>
  <path d="M80 108 L59 108 M66 101 L59 108 L66 115" 
        stroke="url(#gradient2)" stroke-width="4" fill="none" stroke-linecap="round" stroke-linejoin="round"/>
  
  <!-- "X" -->
  <path d="M89 96 L103 110 M103 96 L89 110" 
        stroke="white" stroke-width="3" stroke-linecap="round"/>
</svg>
