<svg width="96" height="96" viewBox="0 0 96 96" fill="none" xmlns="http://www.w3.org/2000/svg">
  <!-- Background -->
  <rect width="96" height="96" rx="16" fill="url(#gradient1)"/>
  
  <defs>
    <linearGradient id="gradient1" x1="0%" y1="0%" x2="100%" y2="100%">
      <stop offset="0%" style="stop-color:#3B82F6;stop-opacity:1" />
      <stop offset="100%" style="stop-color:#1E40AF;stop-opacity:1" />
    </linearGradient>
    <linearGradient id="gradient2" x1="0%" y1="0%" x2="100%" y2="100%">
      <stop offset="0%" style="stop-color:#FBBF24;stop-opacity:1" />
      <stop offset="100%" style="stop-color:#F59E0B;stop-opacity:1" />
    </linearGradient>
  </defs>
  
  <!-- "S" -->
  <path d="M25 32 C20 32 16 36 16 41 C16 46 20 50 25 50 L37 50 C42 50 46 54 46 59 C46 64 42 68 37 68 L25 68 C16 68 9 61 9 52 L9 48" 
        stroke="white" stroke-width="4" fill="none" stroke-linecap="round"/>
  
  <!-- Books -->
  <rect x="55" y="30" width="30" height="4" rx="1" fill="white" opacity="0.9"/>
  <rect x="56" y="25" width="28" height="4" rx="1" fill="white" opacity="0.8"/>
  <rect x="57" y="20" width="26" height="4" rx="1" fill="white" opacity="0.7"/>
  
  <!-- Exchange -->
  <path d="M37 75 L53 75 M48 70 L53 75 L48 80" 
        stroke="url(#gradient2)" stroke-width="3" fill="none" stroke-linecap="round" stroke-linejoin="round"/>
  <path d="M60 85 L44 85 M49 80 L44 85 L49 90" 
        stroke="url(#gradient2)" stroke-width="3" fill="none" stroke-linecap="round" stroke-linejoin="round"/>
  
  <!-- "X" -->
  <path d="M67 75 L78 86 M78 75 L67 86" 
        stroke="white" stroke-width="2" stroke-linecap="round"/>
</svg>
